# xmcd
#
# Track frame offsets: 
#        150
#        4159
#        39543
#        58091
#        104090
#        115918
#
# Disc length: 1955 seconds
#
# Revision: 0
# Processed by: cddbd v1.5.2PL0 Copyright (c) Steve Scherf et al.
# Submitted via: ExactAudioCopy v1.0b4
#
DISCID=4e07a106
DTITLE=Warren Haynes - Gov't Mule's Island Exodus IV [disc 2]
DYEAR=2013
DGENRE=Blues Rock
TTITLE0=Introduction
TTITLE1=Endless Parade
TTITLE2=Into The Mystic
TTITLE3=Soulshine
TTITLE4=That's Why Were Here
TTITLE5=People Get Ready
EXTD=
EXTT0=
EXTT1=
EXTT2=
EXTT3=
EXTT4=
EXTT5=
PLAYORDER=
